<?xml version="1.0" encoding="UTF-8"?>
<!-- Generator: visioncortex VTracer 0.6.1 -->
<svg version="1.1" xmlns="http://www.w3.org/2000/svg" width="1280" height="567">
<path d="M0 0 C1.48469168 -0.00735762 2.96937767 -0.01594871 4.45405579 -0.02566528 C8.4497414 -0.04770084 12.44521977 -0.05082146 16.44095778 -0.04891777 C19.78846703 -0.04879734 23.13593348 -0.05738978 26.48343068 -0.06569529 C34.38221256 -0.08486088 42.28088876 -0.08783667 50.1796875 -0.08105469 C58.30855304 -0.07440362 66.43696604 -0.09733658 74.56573981 -0.13436842 C81.5690633 -0.16510667 88.5722414 -0.17642145 95.57563096 -0.1725316 C99.74816817 -0.1704701 103.92035212 -0.17585184 108.09282494 -0.20042419 C112.01410223 -0.22276043 115.93464331 -0.22075737 119.85592461 -0.20049667 C121.28894885 -0.19709983 122.7220234 -0.20211837 124.15497971 -0.21648026 C132.53357898 -0.2946215 139.06588285 0.11994274 145.82739258 5.41992188 C148.4743671 8.20263868 150.26209905 10.92811324 151.82739258 14.41992188 C152.15739258 15.07992187 152.48739258 15.73992187 152.82739258 16.41992188 C152.54796803 18.09646916 152.21911011 19.76600342 151.82739258 21.41992188 C152.48739258 21.41992188 153.14739258 21.41992188 153.82739258 21.41992188 C153.85072174 37.43985725 153.86837184 53.45978714 153.87920475 69.47973537 C153.88436767 76.91756698 153.89141029 84.35538805 153.90283203 91.79321289 C153.91277899 98.27373529 153.91924603 104.75425007 153.92148107 111.23477989 C153.92278816 114.6682273 153.92587388 118.10165288 153.93312263 121.53509331 C153.94113674 125.36186008 153.94138371 129.18860523 153.94091797 133.01538086 C153.94451324 134.16192642 153.94810852 135.30847198 153.95181274 136.48976135 C153.95043808 137.52607697 153.94906342 138.56239258 153.94764709 139.63011169 C153.94902978 140.98929545 153.94902978 140.98929545 153.95044041 142.37593746 C153.82739258 144.41992188 153.82739258 144.41992188 152.82739258 145.41992188 C152.55301949 148.91315976 152.82839027 152.0600932 153.82739258 155.41992188 C155.72810097 157.59449577 157.66452299 159.17916814 160.01489258 160.84960938 C162.12762827 162.68003987 162.33904798 163.73402657 162.82739258 166.41992188 C163.32239258 166.87367188 163.81739258 167.32742188 164.32739258 167.79492188 C166.44945966 170.09382788 166.3661587 172.38895638 166.82739258 175.41992188 C167.48739258 175.74992188 168.14739258 176.07992187 168.82739258 176.41992188 C168.49739258 178.72992188 168.16739258 181.03992188 167.82739258 183.41992188 C168.48739258 183.41992188 169.14739258 183.41992188 169.82739258 183.41992188 C169.85448702 185.50318319 169.87383131 187.58654629 169.88989258 189.66992188 C169.90149414 190.83007812 169.9130957 191.99023438 169.92504883 193.18554688 C169.84493873 195.83879332 169.76235712 197.95020422 168.82739258 200.41992188 C168.16739258 200.74992188 167.50739258 201.07992187 166.82739258 201.41992188 C166.4201003 203.74148785 166.08300581 206.07680057 165.82739258 208.41992188 C165.16739258 208.41992188 164.50739258 208.41992188 163.82739258 208.41992188 C163.67270508 209.31710937 163.67270508 209.31710937 163.51489258 210.23242188 C162.73862803 212.70235452 161.75650337 213.74243423 159.82739258 215.41992188 C159.49739258 214.42992187 159.16739258 213.43992187 158.82739258 212.41992188 C158.49739258 214.39992188 158.16739258 216.37992188 157.82739258 218.41992188 C157.16739258 218.41992188 156.50739258 218.41992188 155.82739258 218.41992188 C155.49739258 219.40992188 155.16739258 220.39992188 154.82739258 221.41992188 C150.53691725 224.07593041 146.76534777 224.74216332 141.82739258 225.41992188 C141.49739258 226.07992187 141.16739258 226.73992187 140.82739258 227.41992188 C139.01489258 227.79882812 139.01489258 227.79882812 136.82739258 227.98242188 C134.03807199 228.04657596 134.03807199 228.04657596 131.82739258 229.41992188 C129.01575878 229.5085418 126.22881002 229.53514543 123.41723633 229.51757812 C122.57520157 229.51616318 121.73316681 229.51474823 120.86561584 229.51329041 C118.16533923 229.50767451 115.4651443 229.49511936 112.76489258 229.48242188 C110.9387219 229.47740892 109.11254992 229.47284566 107.28637695 229.46875 C102.80001716 229.45769992 98.31371874 229.44042467 93.82739258 229.41992188 C93.82739258 228.75992188 93.82739258 228.09992188 93.82739258 227.41992188 C92.27430893 227.44537582 92.27430893 227.44537582 90.68984985 227.47134399 C80.94852619 227.62968044 71.20709227 227.77742127 61.46544838 227.91469765 C56.45676365 227.98562164 51.44819378 228.06032255 46.43969727 228.14355469 C41.60931537 228.22368959 36.77888238 228.29403451 31.94825363 228.35749435 C30.10215344 228.38348631 28.25610007 228.41304996 26.41011429 228.44618607 C23.83130219 228.49187597 21.25261807 228.52504437 18.67358398 228.55517578 C17.90466324 228.57171707 17.13574249 228.58825836 16.34352112 228.6053009 C14.50383361 228.6201649 12.66386803 228.52959846 10.82739258 228.41992188 C10.16739258 227.75992188 9.50739258 227.09992188 8.82739258 226.41992188 C6.79833692 225.81350439 4.75378235 225.25835823 2.70239258 224.73242188 C-5.62253233 222.1772469 -10.18670204 219.10165092 -14.46948242 211.47851562 C-16.56324294 207.52358515 -18.5188014 203.58035126 -20.17260742 199.41992188 C-19.84260742 198.75992188 -19.51260742 198.09992188 -19.17260742 197.41992188 C-19.83260742 197.41992188 -20.49260742 197.41992188 -21.17260742 197.41992188 C-21.17260742 169.03992188 -21.17260742 140.65992188 -21.17260742 111.41992188 C-26.78260742 108.44992187 -32.39260742 105.47992188 -38.17260742 102.41992188 C-46.86730895 95.46416066 -53.57014597 87.64761398 -58.17260742 77.41992188 C-58.50260742 76.75992188 -58.83260742 76.09992188 -59.17260742 75.41992188 C-58.67760742 74.42992187 -58.67760742 74.42992187 -58.17260742 73.41992188 C-58.83260742 73.41992188 -59.49260742 73.41992188 -60.17260742 73.41992188 C-60.38916992 71.71835938 -60.38916992 71.71835938 -60.61010742 69.98242188 C-60.7843222 66.61214986 -60.7843222 66.61214986 -62.17260742 65.41992188 C-62.30078673 62.38833212 -62.35783955 59.389569 -62.36010742 56.35742188 C-62.37235352 55.52275391 -62.38459961 54.68808594 -62.3972168 53.828125 C-62.41002447 48.35070962 -61.71082858 43.67905745 -60.17260742 38.41992188 C-59.51260742 38.41992188 -58.85260742 38.41992188 -58.17260742 38.41992188 C-57.88385742 37.34742188 -57.59510742 36.27492187 -57.29760742 35.16992188 C-56.07903126 31.10800133 -55.16065395 28.4079684 -52.17260742 25.41992188 C-52.02823242 24.78054687 -51.88385742 24.14117187 -51.73510742 23.48242188 C-51.05382309 20.98437932 -50.17077085 20.03382311 -48.17260742 18.41992188 C-47.18260742 18.08992188 -46.19260742 17.75992188 -45.17260742 17.41992188 C-44.76010742 16.63617188 -44.34760742 15.85242188 -43.92260742 15.04492188 C-41.57592528 11.52489866 -39.06170963 10.92097887 -35.17260742 9.41992188 C-33.13305727 8.0213732 -31.28602353 6.51475257 -29.39068317 4.93000031 C-21.08748674 -0.72286247 -9.61317726 -0.02279963 0 0 Z M-25.17260742 3.41992188 C-25.50260742 4.07992187 -25.83260742 4.73992187 -26.17260742 5.41992188 C-24.85260742 4.75992188 -23.53260742 4.09992188 -22.17260742 3.41992188 C-23.16260742 3.41992188 -24.15260742 3.41992188 -25.17260742 3.41992188 Z M-60.17260742 42.41992188 C-59.17260742 44.41992188 -59.17260742 44.41992188 -59.17260742 44.41992188 Z M-61.17260742 46.41992188 C-60.17260742 49.41992188 -60.17260742 49.41992188 -60.17260742 49.41992188 Z " fill="#FAECDB" transform="translate(285.172607421875,168.580078125)"/>
<path d="M0 0 C2.24973447 -0.054138 4.49984383 -0.09285491 6.75 -0.125 C8.00296875 -0.14820313 9.2559375 -0.17140625 10.546875 -0.1953125 C15.57593315 0.08913649 15.57593315 0.08913649 18 2 C22.13399191 7.88360829 21.41146767 14.31259223 21.36889648 21.26635742 C21.37136673 22.61883854 21.37520741 23.97131775 21.38031006 25.3237915 C21.38862943 28.22939125 21.38785619 31.13479487 21.38012505 34.04039574 C21.36850402 38.64366525 21.38073778 43.24668466 21.39674377 47.84992981 C21.43287898 59.28637184 21.43917446 70.72280779 21.43664551 82.15930176 C21.43493027 91.04411134 21.44217882 99.92871539 21.47662407 108.8134678 C21.493333 113.38006373 21.49169677 117.94615675 21.47580135 122.51275003 C21.46996435 125.36718357 21.48081609 128.22138371 21.49604797 131.07577515 C21.50149172 133.00949458 21.48724641 134.94323892 21.47218323 136.87690735 C21.54741525 146.11478322 22.79414254 154.75689969 29.125 161.875 C36.27368879 168.16039375 43.25335381 170.90426183 52.8203125 170.4765625 C60.97923116 169.25372702 66.41136072 165.27876222 71.625 159.0625 C76.00201546 152.49697681 75.55706491 145.63974738 75 138 C73.6517556 131.65532047 68.89566027 125.71667906 64.23046875 121.33984375 C59.71853928 118.62952534 54.12315685 118.66601039 49 118 C49 122.62 49 127.24 49 132 C51.97 132.99 51.97 132.99 55 134 C56 135 56 135 56.09765625 137.72265625 C56.08605469 138.82480469 56.07445312 139.92695313 56.0625 141.0625 C56.05347656 142.16722656 56.04445313 143.27195312 56.03515625 144.41015625 C56.02355469 145.26480469 56.01195312 146.11945313 56 147 C49.40372714 147.6196916 44.75089405 146.92561803 38.91015625 143.77734375 C35.04872267 140.1843943 33.88547387 135.79302695 33.56640625 130.6953125 C33.5426621 129.17205949 33.54193658 127.64829927 33.5625 126.125 C33.57152344 125.3314209 33.58054687 124.5378418 33.58984375 123.72021484 C33.76466317 117.81156124 34.25633099 112.78705708 38 108 C43.93034162 103.48928738 50.26679819 103.42681758 57.44213867 103.48242188 C58.56359283 103.4754126 59.685047 103.46840332 60.84048462 103.46118164 C64.53323429 103.44363506 68.22521179 103.45521743 71.91796875 103.46875 C74.49856207 103.4660532 77.0791544 103.46216922 79.65974426 103.45715332 C85.06567 103.45126193 90.4713088 103.45942114 95.87719727 103.47851562 C102.09502071 103.50022677 108.31231821 103.49326973 114.53012866 103.47121 C120.54442815 103.45073903 126.55847413 103.45307519 132.57280922 103.46473694 C135.1159097 103.46739109 137.65902375 103.46418107 140.20210838 103.45481873 C172.40091866 103.36232462 172.40091866 103.36232462 186 115 C188.60478868 117.79538298 189.80155572 119.40466716 191 123 C191.7425 123.6496875 191.7425 123.6496875 192.5 124.3125 C194.58937654 126.66304861 194.53557156 128.94804171 195 132 C195.66 132.33 196.32 132.66 197 133 C196.67 135.31 196.34 137.62 196 140 C196.66 140 197.32 140 198 140 C198.02709444 142.08326131 198.04643873 144.16662441 198.0625 146.25 C198.07410156 147.41015625 198.08570313 148.5703125 198.09765625 149.765625 C198.01754615 152.41887145 197.93496454 154.53028234 197 157 C196.34 157.33 195.68 157.66 195 158 C194.59270772 160.32156597 194.25561323 162.6568787 194 165 C193.34 165 192.68 165 192 165 C191.8453125 165.8971875 191.8453125 165.8971875 191.6875 166.8125 C190.91123545 169.28243264 189.92911079 170.32251235 188 172 C187.67 171.01 187.34 170.02 187 169 C186.67 170.98 186.34 172.96 186 175 C185.34 175 184.68 175 184 175 C183.67 175.99 183.34 176.98 183 178 C178.70952467 180.65600854 174.93795519 181.32224144 170 182 C169.67 182.66 169.34 183.32 169 184 C167.1875 184.37890625 167.1875 184.37890625 165 184.5625 C162.21067942 184.62665408 162.21067942 184.62665408 160 186 C157.1883662 186.08861992 154.40141745 186.11522355 151.58984375 186.09765625 C150.74780899 186.0962413 149.90577423 186.09482635 149.03822327 186.09336853 C146.33794665 186.08775263 143.63775172 186.07519748 140.9375 186.0625 C139.11132932 186.05748705 137.28515734 186.05292379 135.45898438 186.04882812 C130.97262458 186.03777804 126.48632616 186.02050279 122 186 C122 185.34 122 184.68 122 184 C120.44691635 184.02545395 120.44691635 184.02545395 118.86245728 184.05142212 C109.12113361 184.20975857 99.37969969 184.3574994 89.6380558 184.49477577 C84.62937107 184.56569977 79.6208012 184.64040067 74.61230469 184.72363281 C69.7819228 184.80376771 64.9514898 184.87411263 60.12086105 184.93757248 C58.27476086 184.96356443 56.42870749 184.99312808 54.58272171 185.02626419 C52.00390961 185.07195409 49.42522549 185.10512249 46.84619141 185.13525391 C46.07727066 185.1517952 45.30834991 185.16833649 44.51612854 185.18537903 C42.67644104 185.20024303 40.83647546 185.10967658 39 185 C38.01 184.01 38.01 184.01 37 183 C34.97094434 182.39358252 32.92638977 181.83843636 30.875 181.3125 C22.55007509 178.75732503 17.98590538 175.68172904 13.703125 168.05859375 C11.60936449 164.10366327 9.65380602 160.16042939 8 156 C8.495 155.01 8.495 155.01 9 154 C8.34 154 7.68 154 7 154 C7 108.13 7 62.26 7 15 C4.69 14.01 2.38 13.02 0 12 C0 8.04 0 4.08 0 0 Z " fill="#000000" transform="translate(257,212)"/>
<path d="M0 0 C1.48469168 -0.00735762 2.96937767 -0.01594871 4.45405579 -0.02566528 C8.4497414 -0.04770084 12.44521977 -0.05082146 16.44095778 -0.04891777 C19.78846703 -0.04879734 23.13593348 -0.05738978 26.48343068 -0.06569529 C34.38221256 -0.08486088 42.28088876 -0.08783667 50.1796875 -0.08105469 C58.30855304 -0.07440362 66.43696604 -0.09733658 74.56573981 -0.13436842 C81.5690633 -0.16510667 88.5722414 -0.17642145 95.57563096 -0.1725316 C99.74816817 -0.1704701 103.92035212 -0.17585184 108.09282494 -0.20042419 C112.01410223 -0.22276043 115.93464331 -0.22075737 119.85592461 -0.20049667 C121.28894885 -0.19709983 122.7220234 -0.20211837 124.15497971 -0.21648026 C132.53357898 -0.2946215 139.06588285 0.11994274 145.82739258 5.41992188 C148.4743671 8.20263868 150.26209905 10.92811324 151.82739258 14.41992188 C152.15739258 15.07992187 152.48739258 15.73992187 152.82739258 16.41992188 C152.54796803 18.09646916 152.21911011 19.76600342 151.82739258 21.41992188 C152.48739258 21.41992188 153.14739258 21.41992188 153.82739258 21.41992188 C153.82739258 62.00992188 153.82739258 102.59992188 153.82739258 144.41992188 C140.82739258 140.41992188 140.82739258 140.41992188 138.82739258 138.41992188 C138.57126617 136.32373905 138.57126617 136.32373905 138.56237793 133.68190002 C138.55410477 132.68220184 138.5458316 131.68250366 138.53730774 130.6525116 C138.53828964 129.5516774 138.53927155 128.4508432 138.5402832 127.31665039 C138.53345016 126.16050232 138.52661713 125.00435425 138.51957703 123.81317139 C138.50595942 121.29608172 138.49692522 118.77896415 138.49186707 116.26184273 C138.4836093 112.28279497 138.46341998 108.30390972 138.43933105 104.32493591 C138.39032122 95.87747113 138.35802909 87.42997026 138.32739258 78.98242188 C138.2943234 69.8668143 138.25842151 60.75127324 138.20326185 51.63576835 C138.17612333 47.04114969 138.16439072 42.44662809 138.15515137 37.85194397 C138.14218329 35.4521554 138.12866362 33.05236972 138.11450195 30.65258789 C138.11548386 29.55377792 138.11646576 28.45496796 138.11747742 27.32286072 C138.10920425 26.32034271 138.10093109 25.31782471 138.09240723 24.28492737 C138.08800755 22.97665151 138.08800755 22.97665151 138.08351898 21.64194584 C137.96536764 19.133129 137.96536764 19.133129 135.82739258 16.41992188 C132.70388156 15.37875154 130.53381171 15.29165013 127.25694275 15.28620911 C125.51808304 15.27981163 125.51808304 15.27981163 123.74409485 15.27328491 C121.83421028 15.27396469 121.83421028 15.27396469 119.88574219 15.2746582 C118.5320832 15.27166612 117.17842507 15.26826347 115.82476807 15.26448059 C112.14463502 15.25563691 108.46452522 15.2533022 104.78438258 15.2526648 C102.48253497 15.25195399 100.18069327 15.24981897 97.87884712 15.24716759 C89.8402888 15.23790978 81.80174707 15.23383285 73.76318359 15.23461914 C66.28507956 15.2352186 58.80704798 15.22469382 51.32896227 15.20887548 C44.89992051 15.1957638 38.4709023 15.19043683 32.04184729 15.19107455 C28.20628253 15.19132867 24.37078201 15.18852592 20.53523064 15.1778965 C16.92124366 15.16815548 13.30738149 15.16817711 9.69338989 15.17541313 C7.74871714 15.17694378 5.80404425 15.16865245 3.85939026 15.15997314 C-3.0647476 15.18460736 -9.4524924 15.72841924 -16.17260742 17.41992188 C-17.17291992 17.66871094 -18.17323242 17.9175 -19.20385742 18.17382812 C-28.88246531 21.34387849 -36.60371997 28.0257147 -41.91479492 36.72070312 C-46.80234291 47.20919896 -48.2757372 57.18035613 -45.17260742 68.41992188 C-44.93413086 69.30292969 -44.6956543 70.1859375 -44.44995117 71.09570312 C-42.37482779 77.30176979 -38.84094257 81.45644335 -34.29370117 86.09570312 C-32.1678064 88.42518266 -30.60564689 90.61393814 -29.17260742 93.41992188 C-29.42504536 96.95405308 -30.17471493 98.42308313 -32.17260742 101.41992188 C-37.22515976 101.3979064 -40.23339704 101.35913226 -43.92260742 97.66992188 C-44.66510742 96.59742188 -45.40760742 95.52492188 -46.17260742 94.41992188 C-47.41010742 93.24429688 -47.41010742 93.24429688 -48.67260742 92.04492188 C-53.19116778 87.3004335 -56.59513243 81.43403019 -59.17260742 75.41992188 C-58.67760742 74.42992187 -58.67760742 74.42992187 -58.17260742 73.41992188 C-58.83260742 73.41992188 -59.49260742 73.41992188 -60.17260742 73.41992188 C-60.38916992 71.71835938 -60.38916992 71.71835938 -60.61010742 69.98242188 C-60.7843222 66.61214986 -60.7843222 66.61214986 -62.17260742 65.41992188 C-62.30078673 62.38833212 -62.35783955 59.389569 -62.36010742 56.35742188 C-62.37235352 55.52275391 -62.38459961 54.68808594 -62.3972168 53.828125 C-62.41002447 48.35070962 -61.71082858 43.67905745 -60.17260742 38.41992188 C-59.51260742 38.41992188 -58.85260742 38.41992188 -58.17260742 38.41992188 C-57.88385742 37.34742188 -57.59510742 36.27492187 -57.29760742 35.16992188 C-56.07903126 31.10800133 -55.16065395 28.4079684 -52.17260742 25.41992188 C-52.02823242 24.78054687 -51.88385742 24.14117187 -51.73510742 23.48242188 C-51.05382309 20.98437932 -50.17077085 20.03382311 -48.17260742 18.41992188 C-47.18260742 18.08992188 -46.19260742 17.75992188 -45.17260742 17.41992188 C-44.76010742 16.63617188 -44.34760742 15.85242188 -43.92260742 15.04492188 C-41.57592528 11.52489866 -39.06170963 10.92097887 -35.17260742 9.41992188 C-33.13305727 8.0213732 -31.28602353 6.51475257 -29.39068317 4.93000031 C-21.08748674 -0.72286247 -9.61317726 -0.02279963 0 0 Z M-25.17260742 3.41992188 C-25.50260742 4.07992187 -25.83260742 4.73992187 -26.17260742 5.41992188 C-24.85260742 4.75992188 -23.53260742 4.09992188 -22.17260742 3.41992188 C-23.16260742 3.41992188 -24.15260742 3.41992188 -25.17260742 3.41992188 Z M-60.17260742 42.41992188 C-59.17260742 44.41992188 -59.17260742 44.41992188 -59.17260742 44.41992188 Z M-61.17260742 46.41992188 C-60.17260742 49.41992188 -60.17260742 49.41992188 -60.17260742 49.41992188 Z " fill="#010100" transform="translate(285.172607421875,168.580078125)"/>
<path d="M0 0 C7.53923962 6.17535708 12.2545869 13.67782321 15.33203125 22.91015625 C15.42386067 24.44964954 15.46205477 25.9929348 15.45703125 27.53515625 C15.46089844 28.73011719 15.46089844 28.73011719 15.46484375 29.94921875 C15.33203125 31.91015625 15.33203125 31.91015625 14.33203125 32.91015625 C12.04609808 33.11477942 9.75129388 33.22416358 7.45703125 33.28515625 C6.20148438 33.33414063 4.9459375 33.383125 3.65234375 33.43359375 C0.33203125 32.91015625 0.33203125 32.91015625 -1.4921875 30.69921875 C-2.58142895 28.1154367 -3.64622255 25.54499559 -4.60546875 22.91015625 C-7.29910064 16.11050122 -10.16975927 12.79607394 -16.765625 9.70703125 C-24.55732958 6.443155 -35.33182719 6.62852323 -43.29296875 9.47265625 C-48.85321451 12.11236889 -52.06917131 16.07592443 -55.04296875 21.34765625 C-56.64136488 27.9010804 -55.97705154 32.11926138 -52.66796875 37.91015625 C-52.66796875 38.57015625 -52.66796875 39.23015625 -52.66796875 39.91015625 C-42.49868151 45.17589677 -31.99998215 47.12830486 -20.78320312 48.88867188 C-7.80543365 51.08741548 4.78792458 55.20602144 12.70703125 66.28515625 C18.27292339 75.40535452 18.6273933 85.7465433 16.75 96.12890625 C13.97605438 105.95804689 7.92533326 112.87988236 -0.60546875 118.34765625 C-13.57557048 125.38970535 -29.45067828 126.91885464 -43.66796875 122.91015625 C-56.50975566 117.72431244 -65.11682373 111.3691814 -71.66796875 98.91015625 C-73.95338702 93.35408639 -75.41908334 87.91907298 -74.66796875 81.91015625 C-71.31599032 79.67550396 -70.09005629 79.63906976 -66.16796875 79.66015625 C-64.729375 79.65242188 -64.729375 79.65242188 -63.26171875 79.64453125 C-60.66796875 79.91015625 -60.66796875 79.91015625 -57.66796875 81.91015625 C-56.640625 84.73828125 -56.640625 84.73828125 -55.73046875 88.16015625 C-53.40324337 96.07446578 -50.93170275 100.53946759 -43.86328125 104.83203125 C-38.27912076 107.57443035 -33.41246438 108.26933897 -27.29296875 108.22265625 C-26.53781982 108.2177417 -25.7826709 108.21282715 -25.00463867 108.20776367 C-16.63694932 108.03107722 -10.62061937 106.0012406 -4.66796875 99.91015625 C-1.00702738 93.93061867 -0.84412412 87.80049312 -1.66796875 80.91015625 C-2.90927386 76.77247254 -5.0583689 74.38428946 -8.48046875 71.72265625 C-16.70294805 67.64611061 -26.29835175 66.13600752 -35.25390625 64.46191406 C-48.18483392 62.0300842 -59.65756271 59.2214277 -68.66796875 48.91015625 C-74.79473291 39.92074445 -75.38507474 30.40217891 -73.66796875 19.91015625 C-71.07119088 9.87586786 -64.95881312 2.69894679 -56.265625 -2.7734375 C-38.46921331 -11.79207019 -16.50680303 -11.65622822 0 0 Z " fill="#000000" transform="translate(569.66796875,227.08984375)"/>
<path d="M0 0 C11.76373 9.12529341 18.03206275 22.40889767 20 37 C21.26068001 51.75528298 17.80464348 65.78374915 8.9609375 77.76171875 C4.02344219 83.59773353 -1.14842441 87.64754711 -8 91 C-8.76054688 91.4125 -9.52109375 91.825 -10.3046875 92.25 C-16.74430242 95.21263434 -23.0897851 95.3828986 -30.0625 95.4375 C-30.98450195 95.44765137 -31.90650391 95.45780273 -32.85644531 95.46826172 C-45.99995925 95.3020363 -57.57890968 90.21173276 -67 81 C-76.05575541 69.6952328 -80.41661179 58.15606465 -80.3125 43.6875 C-80.30686035 42.85863281 -80.3012207 42.02976562 -80.29541016 41.17578125 C-80.01255491 26.79217211 -75.20164912 14.58654888 -65.24609375 4.06640625 C-46.83124268 -12.87525674 -20.5978618 -12.97004399 0 0 Z M-53 18 C-60.45502382 27.4940047 -62.10672597 38.17347483 -61 50 C-59.34076725 59.72310394 -55.52641957 66.58403578 -48 73 C-40.3051691 78.00563394 -32.97967019 78.72697444 -24 78 C-16.08590737 76.08970178 -9.68890883 72.19153435 -5.2734375 65.30859375 C0.87865787 54.36019655 1.55813987 43.01194413 -0.578125 30.65625 C-3.09579348 22.69126245 -8.32571631 16.09751334 -15.28125 11.48828125 C-28.17678603 5.36290164 -43.07330929 8.07330929 -53 18 Z " fill="#000000" transform="translate(899,256)"/>
<path d="M0 0 C10.3883039 -0.09296446 20.77650771 -0.16389871 31.16514397 -0.20724869 C35.98980349 -0.22806184 40.81417695 -0.25626401 45.63867188 -0.30175781 C50.30063792 -0.34544043 54.96233 -0.3691842 59.62448502 -0.37950897 C61.39697706 -0.38686031 63.16945529 -0.4012152 64.94182968 -0.42292023 C85.74808675 -0.66742599 85.74808675 -0.66742599 92.85397339 5.64764404 C98.18061518 11.25910155 101.63382312 18.42278902 102.25 26.125 C101.65878223 35.28887536 98.89842566 41.87021291 92 48 C83.26898746 54.57749504 73.45512568 53.6450172 63.0859375 53.48828125 C61.26177953 53.47894074 59.4376089 53.47183049 57.61343384 53.46684265 C52.84235208 53.44787016 48.07204711 53.39885509 43.30126953 53.34332275 C38.42100529 53.29191834 33.54061394 53.26928361 28.66015625 53.24414062 C19.10643197 53.19072554 9.55328091 53.10553282 0 53 C0.97547654 48.78128667 2.81700438 45.3470877 4.84375 41.53515625 C9.38993525 31.56733791 7.42948572 19.76416684 4.16796875 9.7421875 C3.12026211 6.97927311 3.12026211 6.97927311 1.36328125 4.8203125 C0 3 0 3 0 0 Z " fill="#E7C08F" transform="translate(339,330)"/>
<path d="M0 0 C7.05577616 5.57359999 12.40784637 14.07982779 15.03515625 22.66015625 C14.76848958 26.92682292 14.76848958 26.92682292 13.03515625 28.66015625 C7.9095479 29.3300878 3.14643042 29.51023045 -1.96484375 28.66015625 C-4.99327999 26.1238409 -6.3635141 23.22266491 -7.96484375 19.66015625 C-11.47026445 14.40202521 -15.87363986 11.97456431 -21.80078125 10.0703125 C-30.77332599 8.36973994 -40.06796795 8.88530111 -47.96484375 13.66015625 C-54.73793544 18.69756163 -58.16988313 25.52449489 -59.96484375 33.66015625 C-61.08917547 46.51475708 -60.6575635 58.17525033 -52.33984375 68.59765625 C-46.09663009 75.00154085 -39.7882839 76.84434982 -30.96484375 77.16015625 C-23.32523897 76.92739354 -17.7698612 74.82209798 -11.21484375 71.09765625 C-8.15385024 67.78157995 -6.31409839 64.0419168 -4.296875 60.0234375 C-2.96484375 57.66015625 -2.96484375 57.66015625 -0.96484375 56.66015625 C1.17747775 56.51181974 3.32539754 56.43888212 5.47265625 56.41015625 C6.62636719 56.384375 7.78007813 56.35859375 8.96875 56.33203125 C12.03515625 56.66015625 12.03515625 56.66015625 13.97265625 57.921875 C15.36402741 60.19819914 15.20140124 61.14386952 14.59765625 63.72265625 C12.53538022 71.52620691 8.08913152 78.36292789 2.03515625 83.66015625 C1.16890625 84.48515625 0.30265625 85.31015625 -0.58984375 86.16015625 C-11.6808519 95.10633839 -25.67124073 96.42293245 -39.38671875 95.1953125 C-48.51420442 93.83017545 -55.61844193 90.09529906 -62.96484375 84.66015625 C-63.83109375 84.08265625 -64.69734375 83.50515625 -65.58984375 82.91015625 C-74.89010453 74.09938288 -80.63171221 61.2496144 -81.203125 48.47265625 C-81.43084649 38.51605148 -80.82868297 29.99776771 -76.96484375 20.66015625 C-76.67609375 19.92796875 -76.38734375 19.19578125 -76.08984375 18.44140625 C-71.30559634 7.67684957 -62.81164562 -0.83814169 -52.09375 -5.62109375 C-34.61384843 -12.26203329 -15.55627475 -10.60795674 0 0 Z " fill="#000000" transform="translate(680.96484375,256.33984375)"/>
<path d="M0 0 C2.2771711 3.41575664 2.35343201 4.96473669 2.4375 9 C2.49744141 10.5778125 2.49744141 10.5778125 2.55859375 12.1875 C2 15 2 15 -0.08203125 16.93359375 C-3.86334547 18.31551983 -6.18852246 17.82267573 -10.125 17.0625 C-18.91183849 15.62126118 -26.07558594 15.9133352 -33.8125 20.625 C-41.77240715 26.53441228 -45.31693796 33.32504379 -47 43 C-47.59397156 49.70998139 -47.60274043 56.45612696 -47.6875 63.1875 C-47.72073322 65.0162996 -47.75522825 66.84507672 -47.79101562 68.67382812 C-47.87522713 73.11576004 -47.94235674 77.55764713 -48 82 C-46.66038208 81.99214478 -46.66038208 81.99214478 -45.29370117 81.98413086 C-41.97826492 81.96708214 -38.6628753 81.95454653 -35.34741211 81.94506836 C-33.91283432 81.94004158 -32.47826164 81.93321921 -31.04370117 81.92456055 C-28.98094418 81.91242248 -26.91825496 81.90675514 -24.85546875 81.90234375 C-23.61434326 81.89710693 -22.37321777 81.89187012 -21.09448242 81.88647461 C-18 82 -18 82 -15 83 C-13.63728867 85.72542267 -13.83076399 87.96087274 -13.8125 91 C-13.79832031 92.0725 -13.78414062 93.145 -13.76953125 94.25 C-14 97 -14 97 -16 99 C-18.45842922 99.19819282 -20.80419599 99.27281958 -23.26367188 99.25878906 C-24.38582848 99.26404602 -24.38582848 99.26404602 -25.53065491 99.26940918 C-28.01011359 99.2782309 -30.48928828 99.27237589 -32.96875 99.265625 C-34.68745987 99.26697153 -36.40616937 99.26891195 -38.12487793 99.27142334 C-41.7296104 99.2743752 -45.33424386 99.27007501 -48.93896484 99.26074219 C-53.5662906 99.24934759 -58.19338436 99.25590674 -62.8207016 99.26788712 C-66.37052162 99.27510407 -69.92028637 99.27281855 -73.47010803 99.26763153 C-75.17660042 99.26629458 -76.88309777 99.26794435 -78.58958435 99.27259064 C-80.97196805 99.27765322 -83.35397275 99.26994966 -85.73632812 99.25878906 C-86.44600235 99.26283752 -87.15567657 99.26688599 -87.88685608 99.27105713 C-92.77147094 99.22852906 -92.77147094 99.22852906 -95 97 C-95.3359375 94.28515625 -95.3359375 94.28515625 -95.375 91.0625 C-95.40335938 90.00160156 -95.43171875 88.94070313 -95.4609375 87.84765625 C-95 85 -95 85 -91 82 C-83.08 82 -75.16 82 -67 82 C-67.495 50.32 -67.495 50.32 -68 18 C-79.385 17.505 -79.385 17.505 -91 17 C-92.4241906 14.15161879 -92.16995508 11.67212092 -92.1875 8.5 C-92.20876953 6.75203125 -92.20876953 6.75203125 -92.23046875 4.96875 C-92 2 -92 2 -90 0 C-87.54917334 -0.21187889 -85.21416919 -0.30399352 -82.76171875 -0.30078125 C-82.04393753 -0.30506638 -81.32615631 -0.3093515 -80.58662415 -0.31376648 C-79.06597956 -0.31951379 -77.54530748 -0.32000708 -76.0246582 -0.31567383 C-73.70671047 -0.31252609 -71.3900543 -0.33592297 -69.07226562 -0.36132812 C-67.59375161 -0.36360244 -66.11523416 -0.364304 -64.63671875 -0.36328125 C-63.60208748 -0.37709587 -63.60208748 -0.37709587 -62.54655457 -0.39118958 C-57.27977289 -0.34101662 -54.25533748 1.07878659 -50.3125 4.4375 C-48.84920727 6.17951516 -47.92818665 7.92942977 -47 10 C-46.34 9.0925 -45.68 8.185 -45 7.25 C-35.04837576 -4.50345036 -13.52366533 -4.2122892 0 0 Z " fill="#000000" transform="translate(804,252)"/>
<path d="M0 0 C1.68706055 -0.03673828 1.68706055 -0.03673828 3.40820312 -0.07421875 C10.06759619 -0.09770867 14.50523576 0.19084977 19.8125 4.375 C21.65061088 7.307225 22.06099281 9.52309003 22.05300903 12.95611572 C22.05575836 13.87034302 22.05850769 14.78457031 22.06134033 15.72650146 C22.05414978 16.72200012 22.04695923 17.71749878 22.03955078 18.74316406 C22.03984283 19.79713379 22.04013489 20.85110352 22.04043579 21.93701172 C22.03904217 25.42163315 22.02347922 28.90604091 22.0078125 32.390625 C22.00408249 34.80629357 22.00123546 37.22196365 21.99923706 39.63763428 C21.99159968 45.99658381 21.97195018 52.35544202 21.9498291 58.71435547 C21.929373 65.20278691 21.92023584 71.69123311 21.91015625 78.1796875 C21.88870448 90.9114973 21.85495146 103.64324379 21.8125 116.375 C22.71081543 116.36452637 23.60913086 116.35405273 24.53466797 116.34326172 C27.86314447 116.3092053 31.19143622 116.28411382 34.52001953 116.26513672 C35.96145547 116.25507037 37.40287095 116.2414162 38.84423828 116.22412109 C40.91443934 116.19989988 42.98437076 116.18852359 45.0546875 116.1796875 C46.92423096 116.16397705 46.92423096 116.16397705 48.83154297 116.14794922 C51.8125 116.375 51.8125 116.375 53.8125 118.375 C54.04296875 121.125 54.04296875 121.125 54 124.375 C53.99355469 125.4475 53.98710938 126.52 53.98046875 127.625 C53.8125 130.375 53.8125 130.375 52.8125 132.375 C46.01325608 132.45088365 39.21412078 132.50352926 32.41455078 132.53979492 C30.10005615 132.55490853 27.78559026 132.57539996 25.47119141 132.60131836 C22.14999304 132.63758841 18.82917232 132.65470044 15.5078125 132.66796875 C13.94838425 132.69119453 13.94838425 132.69119453 12.35745239 132.71488953 C10.91618484 132.71522942 10.91618484 132.71522942 9.44580078 132.71557617 C8.17339035 132.72556892 8.17339035 132.72556892 6.87527466 132.73576355 C6.19455902 132.61671158 5.51384338 132.49765961 4.8125 132.375 C2.68604942 129.18532413 2.56381079 128.4147342 2.57199097 124.76228333 C2.56924164 123.81577408 2.56649231 122.86926483 2.56365967 121.89407349 C2.57085022 120.8575766 2.57804077 119.82107971 2.58544922 118.75317383 C2.58515717 117.66033585 2.58486511 116.56749786 2.58456421 115.44154358 C2.58595993 111.82162596 2.6015327 108.201913 2.6171875 104.58203125 C2.62091676 102.07525241 2.62376414 99.56847211 2.62576294 97.06169128 C2.63262455 91.13312501 2.64839487 85.20462463 2.66846192 79.27609223 C2.69300488 71.86441313 2.70375066 64.45272495 2.71484375 57.04101562 C2.73630586 43.81897296 2.77006678 30.59699114 2.8125 17.375 C1.83667969 17.39820313 0.86085938 17.42140625 -0.14453125 17.4453125 C-1.41683594 17.46335938 -2.68914063 17.48140625 -4 17.5 C-5.89685547 17.53480469 -5.89685547 17.53480469 -7.83203125 17.5703125 C-11.1875 17.375 -11.1875 17.375 -14.1875 15.375 C-14.55078125 12.40625 -14.55078125 12.40625 -14.5 8.875 C-14.49613281 7.7096875 -14.49226562 6.544375 -14.48828125 5.34375 C-13.73365728 -2.10448662 -5.79991268 0.00653511 0 0 Z " fill="#000000" transform="translate(938.1875,218.625)"/>
<path d="M0 0 C1.68706055 -0.03673828 1.68706055 -0.03673828 3.40820312 -0.07421875 C10.06759619 -0.09770867 14.50523576 0.19084977 19.8125 4.375 C21.65061088 7.307225 22.06099281 9.52309003 22.05300903 12.95611572 C22.05575836 13.87034302 22.05850769 14.78457031 22.06134033 15.72650146 C22.05414978 16.72200012 22.04695923 17.71749878 22.03955078 18.74316406 C22.03984283 19.79713379 22.04013489 20.85110352 22.04043579 21.93701172 C22.03904217 25.42163315 22.02347922 28.90604091 22.0078125 32.390625 C22.00408249 34.80629357 22.00123546 37.22196365 21.99923706 39.63763428 C21.99159968 45.99658381 21.97195018 52.35544202 21.9498291 58.71435547 C21.929373 65.20278691 21.92023584 71.69123311 21.91015625 78.1796875 C21.88870448 90.9114973 21.85495146 103.64324379 21.8125 116.375 C22.71081543 116.36452637 23.60913086 116.35405273 24.53466797 116.34326172 C27.86314447 116.3092053 31.19143622 116.28411382 34.52001953 116.26513672 C35.96145547 116.25507037 37.40287095 116.2414162 38.84423828 116.22412109 C40.91443934 116.19989988 42.98437076 116.18852359 45.0546875 116.1796875 C46.92423096 116.16397705 46.92423096 116.16397705 48.83154297 116.14794922 C51.8125 116.375 51.8125 116.375 53.8125 118.375 C54.04296875 121.125 54.04296875 121.125 54 124.375 C53.99355469 125.4475 53.98710938 126.52 53.98046875 127.625 C53.8125 130.375 53.8125 130.375 52.8125 132.375 C46.01325608 132.45088365 39.21412078 132.50352926 32.41455078 132.53979492 C30.10005615 132.55490853 27.78559026 132.57539996 25.47119141 132.60131836 C22.14999304 132.63758841 18.82917232 132.65470044 15.5078125 132.66796875 C13.94838425 132.69119453 13.94838425 132.69119453 12.35745239 132.71488953 C10.91618484 132.71522942 10.91618484 132.71522942 9.44580078 132.71557617 C8.17339035 132.72556892 8.17339035 132.72556892 6.87527466 132.73576355 C6.19455902 132.61671158 5.51384338 132.49765961 4.8125 132.375 C2.69201136 129.19426704 2.56377001 128.43802054 2.57199097 124.80024719 C2.56924164 123.8621521 2.56649231 122.92405701 2.56365967 121.95753479 C2.57085022 120.93038864 2.57804077 119.90324249 2.58544922 118.8449707 C2.58515717 117.76188629 2.58486511 116.67880188 2.58456421 115.56289673 C2.58595988 111.975444 2.60153241 108.3881978 2.6171875 104.80078125 C2.62091678 102.31642266 2.62376415 99.83206261 2.62576294 97.34770203 C2.63262444 91.472257 2.64839458 85.59688848 2.66846192 79.72147483 C2.69300529 72.3761775 2.70375075 65.03087584 2.71484375 57.68554688 C2.73630562 44.58199345 2.77006635 31.47850143 2.8125 18.375 C1.83667969 18.32601562 0.86085938 18.27703125 -0.14453125 18.2265625 C-2.05298828 18.11441406 -2.05298828 18.11441406 -4 18 C-5.26457031 17.93039063 -6.52914062 17.86078125 -7.83203125 17.7890625 C-11.1875 17.375 -11.1875 17.375 -14.1875 15.375 C-14.55078125 12.40625 -14.55078125 12.40625 -14.5 8.875 C-14.49613281 7.7096875 -14.49226562 6.544375 -14.48828125 5.34375 C-13.73365728 -2.10448662 -5.79991268 0.00653511 0 0 Z " fill="#000000" transform="translate(1001.1875,218.625)"/>
<path d="M0 0 C0.9706842 -0.0065712 1.94136841 -0.0131424 2.94146729 -0.01991272 C6.16817288 -0.03969695 9.39483186 -0.05131886 12.62158203 -0.0612793 C13.72017673 -0.06535482 14.81877144 -0.06943035 15.95065689 -0.07362938 C21.76365218 -0.09451066 27.57662371 -0.10880422 33.38964844 -0.11816406 C39.40815519 -0.12924094 45.42629346 -0.16364994 51.44466972 -0.20333576 C56.05995392 -0.2294208 60.6751492 -0.23784861 65.29050064 -0.24144554 C67.50975156 -0.24633148 69.728998 -0.25800197 71.94817734 -0.27648354 C75.04908604 -0.30070548 78.14902663 -0.29994108 81.25 -0.29296875 C82.17271698 -0.30577881 83.09543396 -0.31858887 84.04611206 -0.33178711 C90.23958226 -0.28083744 90.23958226 -0.28083744 92.82107544 2.01496887 C94.09758334 4.97199861 94.2285159 6.99361562 93.75439453 10.17700195 C91.98375629 12.23124042 90.50295793 13.07387185 87.8083744 13.44510651 C85.2767087 13.55514211 82.76224531 13.55911309 80.22827148 13.53344727 C78.78139954 13.53651382 78.78139954 13.53651382 77.30529785 13.53964233 C74.11756426 13.54265018 70.93034787 13.52417596 67.74267578 13.50512695 C65.53118518 13.50206984 63.31969266 13.50019336 61.10820007 13.49945068 C56.47546004 13.49484793 51.84289387 13.48042036 47.21020508 13.45825195 C41.2578677 13.42992011 35.30566703 13.41903553 29.35326862 13.41456985 C24.78867717 13.41042341 20.22411362 13.40061326 15.65953636 13.38869476 C13.46377983 13.38297981 11.26802059 13.37822519 9.0722599 13.3744278 C6.012236 13.36759046 2.95232285 13.35397149 -0.10766602 13.33813477 C-1.02350967 13.33701691 -1.93935333 13.33589905 -2.88294983 13.33474731 C-9.13091707 13.29169036 -9.13091707 13.29169036 -10.24560547 12.17700195 C-10.34411718 10.34584312 -10.37533176 8.51080262 -10.37060547 6.67700195 C-10.37318359 5.67668945 -10.37576172 4.67637695 -10.37841797 3.64575195 C-10.07945349 -1.91147004 -4.34065694 0.01259392 0 0 Z " fill="#000000" transform="translate(312.24560546875,246.822998046875)"/>
<path d="M0 0 C0.79526596 -0.00175232 1.59053192 -0.00350464 2.40989685 -0.00531006 C5.04680545 -0.00972226 7.68364732 -0.00679252 10.32055664 -0.00341797 C12.14897169 -0.00409126 13.97738665 -0.00506149 15.80580139 -0.00631714 C19.64170177 -0.00779331 23.47757889 -0.00564238 27.31347656 -0.00097656 C32.23434523 0.00471665 37.15515931 0.00144379 42.07602596 -0.00454903 C45.85319938 -0.00816024 49.63035984 -0.0070134 53.40753365 -0.00442123 C55.22205169 -0.00375331 57.0365709 -0.00457571 58.85108757 -0.00690079 C61.3864339 -0.00943602 63.92169153 -0.00557418 66.45703125 0 C67.20986389 -0.00202423 67.96269653 -0.00404846 68.73834229 -0.00613403 C71.8635184 0.00661556 74.30481772 0.13326281 77.29321289 1.12939453 C79.38367779 3.81713512 80.33200527 5.31475462 80.16821289 8.75439453 C79.15863716 11.49467152 78.68316198 12.44842073 76.29321289 14.12939453 C73.50876238 14.41514591 70.94975628 14.51862612 68.16577148 14.48583984 C66.92394356 14.4889064 66.92394356 14.4889064 65.6570282 14.49203491 C62.91834488 14.49504513 60.18026221 14.47656123 57.44165039 14.45751953 C55.54261423 14.45446269 53.64357583 14.452586 51.74453735 14.45184326 C47.76490703 14.44723895 43.78547892 14.43280618 39.8059082 14.41064453 C34.69316914 14.38232362 29.58058921 14.3714294 24.46777916 14.36696243 C20.54741815 14.36281531 16.62708963 14.35300441 12.70674515 14.34108734 C10.82079963 14.33537279 8.93485096 14.33061803 7.0489006 14.32682037 C4.41983232 14.31998106 1.79089276 14.30636089 -0.83813477 14.29052734 C-2.01789131 14.28885056 -2.01789131 14.28885056 -3.22148132 14.28713989 C-8.59209872 14.24408292 -8.59209872 14.24408292 -9.70678711 13.12939453 C-9.77922764 11.10975254 -9.79055899 9.0877233 -9.76928711 7.06689453 C-9.76026367 5.96216797 -9.75124023 4.85744141 -9.74194336 3.71923828 C-9.7303418 2.86458984 -9.71874023 2.00994141 -9.70678711 1.12939453 C-6.62402107 -0.41198849 -3.38248902 -0.00907051 0 0 Z " fill="#000000" transform="translate(311.706787109375,213.87060546875)"/>
<path d="M0 0 C0.82277435 -0.00817749 1.64554871 -0.01635498 2.49325562 -0.02478027 C5.22816224 -0.04968311 7.96301679 -0.06616282 10.69799805 -0.08056641 C11.62985617 -0.08589008 12.56171429 -0.09121376 13.52181053 -0.09669876 C18.45414789 -0.1234518 23.38645974 -0.14281964 28.31884766 -0.15722656 C33.4204057 -0.17387841 38.5213182 -0.21865438 43.62263203 -0.26959801 C47.53882104 -0.30321458 51.45485584 -0.31479788 55.37117577 -0.32045364 C57.25190348 -0.32718182 59.1326205 -0.34244437 61.01320839 -0.36634445 C63.64476065 -0.39787948 66.27455928 -0.39805075 68.90625 -0.390625 C70.07454094 -0.415233 70.07454094 -0.415233 71.26643372 -0.44033813 C75.14357973 -0.39549744 76.79932191 -0.13427495 79.67008972 2.5652771 C81.1472168 5.19287109 81.1472168 5.19287109 81.0222168 7.81787109 C80.1472168 10.19287109 80.1472168 10.19287109 78.1472168 13.19287109 C75.37141306 13.48443526 72.81896013 13.58149342 70.04150391 13.54931641 C68.78526466 13.55238297 68.78526466 13.55238297 67.50364685 13.55551147 C64.72706484 13.55852701 61.95107225 13.54002081 59.17456055 13.52099609 C57.25167488 13.51793998 55.328787 13.51606274 53.40589905 13.51531982 C49.37321522 13.51071205 45.34073057 13.49626699 41.30810547 13.47412109 C36.12695687 13.44581938 30.94596522 13.43490831 25.76474667 13.430439 C21.79377152 13.42629146 17.82282842 13.4164799 13.85186958 13.4045639 C11.94080425 13.39884846 10.0297358 13.394094 8.1186657 13.39029694 C5.45356646 13.38345719 2.78859419 13.36983629 0.12353516 13.35400391 C-0.67389099 13.35288605 -1.47131714 13.35176819 -2.29290771 13.35061646 C-7.73809662 13.30755768 -7.73809662 13.30755768 -8.8527832 12.19287109 C-8.95129491 10.36171226 -8.98250949 8.52667176 -8.9777832 6.69287109 C-8.98036133 5.69255859 -8.98293945 4.69224609 -8.9855957 3.66162109 C-8.70506379 -1.5529721 -4.15923502 0.02257278 0 0 Z " fill="#000000" transform="translate(310.852783203125,278.80712890625)"/>
<path d="M0 0 C25.41 0 50.82 0 77 0 C77 0.33 77 0.66 77 1 C51.59 1 26.18 1 0 1 C0 0.67 0 0.34 0 0 Z " fill="#5F4538" transform="translate(301,397)"/>
<path d="M0 0 C0.33 0 0.66 0 1 0 C1 21.12 1 42.24 1 64 C0.67 64 0.34 64 0 64 C0 42.88 0 21.76 0 0 Z " fill="#000000" transform="translate(263,294)"/>
<path d="M0 0 C1 4 1 4 1 4 Z " fill="#000000" transform="translate(226,203)"/>
<path d="" fill="#B99772" transform="translate(0,0)"/>
<path d="M0 0 C2 1 2 1 2 1 Z " fill="#5F4538" transform="translate(429,394)"/>
<path d="M0 0 C2 1 2 1 2 1 Z " fill="#A38263" transform="translate(289,394)"/>
<path d="" fill="#5F4538" transform="translate(0,0)"/>
<path d="" fill="#000000" transform="translate(0,0)"/>
<path d="" fill="#5F4538" transform="translate(0,0)"/>
<path d="M0 0 C2 1 2 1 2 1 Z " fill="#000000" transform="translate(248,177)"/>
<path d="M0 0 C2 1 2 1 2 1 Z " fill="#000000" transform="translate(250,176)"/>
<path d="M0 0 C2 1 2 1 2 1 Z " fill="#000000" transform="translate(252,175)"/>
<path d="" fill="#E7C08F" transform="translate(0,0)"/>
<path d="" fill="#5F4538" transform="translate(0,0)"/>
<path d="" fill="#000000" transform="translate(0,0)"/>
<path d="" fill="#5F4538" transform="translate(0,0)"/>
<path d="" fill="#E7C08F" transform="translate(0,0)"/>
<path d="" fill="#5F4538" transform="translate(0,0)"/>
<path d="" fill="#000000" transform="translate(0,0)"/>
<path d="" fill="#000000" transform="translate(0,0)"/>
<path d="" fill="#000000" transform="translate(0,0)"/>
<path d="" fill="#000000" transform="translate(0,0)"/>
<path d="" fill="#000000" transform="translate(0,0)"/>
<path d="" fill="#000000" transform="translate(0,0)"/>
<path d="" fill="#5F4538" transform="translate(0,0)"/>
<path d="" fill="#000000" transform="translate(0,0)"/>
<path d="" fill="#000000" transform="translate(0,0)"/>
<path d="" fill="#5F4538" transform="translate(0,0)"/>
<path d="" fill="#5F4538" transform="translate(0,0)"/>
<path d="" fill="#000000" transform="translate(0,0)"/>
</svg>
